<svg width="111" height="35" viewBox="0 0 111 35" fill="none" xmlns="http://www.w3.org/2000/svg">
<path d="M15.8594 20.7862C15.7616 14.0201 5.84416 16.0689 5.84416 13.1758C5.84416 12.2967 6.56735 11.7738 7.88082 11.7738C9.45621 11.7738 10.41 12.5871 10.5742 13.8265H15.7616C15.3981 10.2479 12.7712 7.64524 8.04501 7.64524C3.2524 7.64524 0.594189 10.182 0.594189 13.2727C0.594189 19.9419 10.5742 17.8273 10.5742 20.7514C10.5742 21.5647 9.81976 22.2153 8.37338 22.2153C6.82927 22.2153 5.67998 21.371 5.55098 20.1007H0C0.265821 23.6135 3.54559 26.3168 8.43983 26.3168C13.037 26.3168 15.8594 23.9388 15.8594 20.7862ZM19.3072 26.0534H24.9208V7.90472H19.3072V26.0534ZM22.1296 6.01859C24.0998 6.01859 25.4446 4.68629 25.4446 3.02479C25.4446 1.33617 24.0998 0 22.1296 0C20.1282 0 18.7795 1.33617 18.7795 3.02479C18.7795 4.68629 20.1282 6.01859 22.1296 6.01859ZM41.6323 26.0534H47.2107V15.4531C47.2107 10.5732 44.3883 7.71108 40.1547 7.71108C37.6919 7.71108 35.7217 8.78389 34.6037 10.3137V7.90472H28.9902V26.0534H34.6037V16.2006C34.6037 13.7258 35.9836 12.3625 38.118 12.3625C40.2524 12.3625 41.6323 13.7258 41.6323 16.2006V26.0534ZM50.0018 16.9481C50.0018 22.6723 53.5826 26.3168 58.0781 26.3168C60.7715 26.3168 62.7065 25.0465 63.7268 23.4547V26.0225C63.7268 29.0782 62.0498 30.1859 59.9154 30.1859C57.9803 30.1859 56.6004 29.3067 56.2408 27.9396H50.6937C51.1863 32.2657 54.7319 35 60.1812 35C66.5179 35 69.3403 30.8675 69.3403 26.0225V7.90472H63.7268V10.4764C62.7417 8.84973 60.7715 7.64524 58.0781 7.64524C53.5826 7.64524 50.0018 11.2239 50.0018 16.9481ZM63.7268 16.9791C63.7268 19.8761 61.8543 21.4679 59.7199 21.4679C57.6207 21.4679 55.717 19.8412 55.717 16.9481C55.717 14.0511 57.6207 12.4903 59.7199 12.4903C61.8543 12.4903 63.7268 14.086 63.7268 16.9791ZM73.4097 26.0534H79.0232V7.90472H73.4097V26.0534ZM81.9786 16.9481C81.9786 22.6723 85.5593 26.3168 90.0236 26.3168C92.7482 26.3168 94.6833 25.0775 95.7035 23.4857V26.0534H101.317V7.90472H95.7035V10.4764C94.7184 8.88071 92.7795 7.64524 90.0548 7.64524C85.5593 7.64524 81.9786 11.2239 81.9786 16.9481ZM95.7035 16.9791C95.7035 19.8761 93.8311 21.4679 91.6967 21.4679C89.5975 21.4679 87.6937 19.8412 87.6937 16.9481C87.6937 14.0511 89.5975 12.4903 91.6967 12.4903C93.8311 12.4903 95.7035 14.086 95.7035 16.9791ZM105.386 26.0534H111V1.98683H105.386V26.0534Z" fill="#FFEEEE"/>
</svg>
