<svg width="120" height="38" viewBox="0 0 120 38" fill="none" xmlns="http://www.w3.org/2000/svg">
<path d="M17.1453 22.5679C17.0396 15.2219 6.31801 17.4463 6.31801 14.3052C6.31801 13.3507 7.09984 12.783 8.51981 12.783C10.2229 12.783 11.2541 13.666 11.4316 15.0116H17.0396C16.6466 11.1263 13.8067 8.30054 8.69731 8.30054C3.51611 8.30054 0.642367 11.0548 0.642367 14.4103C0.642367 21.6512 11.4316 19.3553 11.4316 22.53C11.4316 23.4131 10.616 24.1195 9.0523 24.1195C7.38299 24.1195 6.14052 23.2028 6.00106 21.8236H0C0.287375 25.6375 3.83307 28.5725 9.12414 28.5725C14.094 28.5725 17.1453 25.9907 17.1453 22.5679ZM20.8727 28.2866H26.9414V8.58227H20.8727V28.2866ZM23.9239 6.53447C26.0539 6.53447 27.5077 5.08797 27.5077 3.28405C27.5077 1.4507 26.0539 0 23.9239 0C21.7602 0 20.3022 1.4507 20.3022 3.28405C20.3022 5.08797 21.7602 6.53447 23.9239 6.53447ZM45.0079 28.2866H51.0386V16.7777C51.0386 11.4795 47.9873 8.37203 43.4105 8.37203C40.748 8.37203 38.6181 9.53679 37.4094 11.1977V8.58227H31.3407V28.2866H37.4094V17.5892C37.4094 14.9023 38.9012 13.4222 41.2087 13.4222C43.5161 13.4222 45.0079 14.9023 45.0079 17.5892V28.2866ZM54.056 18.4008C54.056 24.6157 57.9271 28.5725 62.7871 28.5725C65.6989 28.5725 67.7908 27.1933 68.8938 25.4651V28.253C68.8938 31.5707 67.0808 32.7733 64.7734 32.7733C62.6815 32.7733 61.1896 31.8187 60.8008 30.3344H54.804C55.3365 35.0313 59.1696 38 65.0608 38C71.9112 38 74.9625 33.5133 74.9625 28.253V8.58227H68.8938V11.3743C67.8288 9.60828 65.6989 8.30054 62.7871 8.30054C57.9271 8.30054 54.056 12.1859 54.056 18.4008ZM68.8938 18.4344C68.8938 21.5797 66.8695 23.308 64.5621 23.308C62.2927 23.308 60.2345 21.5419 60.2345 18.4008C60.2345 15.2555 62.2927 13.5609 64.5621 13.5609C66.8695 13.5609 68.8938 15.2933 68.8938 18.4344ZM79.3619 28.2866H85.4305V8.58227H79.3619V28.2866ZM88.6255 18.4008C88.6255 24.6157 92.4966 28.5725 97.3228 28.5725C100.268 28.5725 102.36 27.227 103.463 25.4987V28.2866H109.532V8.58227H103.463V11.3743C102.398 9.64192 100.302 8.30054 97.3566 8.30054C92.4966 8.30054 88.6255 12.1859 88.6255 18.4008ZM103.463 18.4344C103.463 21.5797 101.439 23.308 99.1315 23.308C96.8621 23.308 94.804 21.5419 94.804 18.4008C94.804 15.2555 96.8621 13.5609 99.1315 13.5609C101.439 13.5609 103.463 15.2933 103.463 18.4344ZM113.931 28.2866H120V2.15713H113.931V28.2866Z" fill="#E80A0A"/>
</svg>
