<svg width="156" height="49" viewBox="0 0 156 49" fill="none" xmlns="http://www.w3.org/2000/svg">
<path d="M22.2889 29.1007C22.1515 19.6282 8.21342 22.4965 8.21342 18.4462C8.21342 17.2153 9.22979 16.4833 11.0758 16.4833C13.2898 16.4833 14.6303 17.622 14.8611 19.3571H22.1515C21.6406 14.347 17.9487 10.7033 11.3065 10.7033C4.57095 10.7033 0.835077 14.2548 0.835077 18.5817C0.835077 27.9187 14.8611 24.9582 14.8611 29.0519C14.8611 30.1905 13.8007 31.1015 11.768 31.1015C9.59789 31.1015 7.98267 29.9194 7.80137 28.141H0C0.373587 33.0589 4.98299 36.8435 11.8614 36.8435C18.3222 36.8435 22.2889 33.5143 22.2889 29.1007ZM27.1345 36.4748H35.0238V11.0666H27.1345V36.4748ZM31.1011 8.42603C33.87 8.42603 35.76 6.5608 35.76 4.2347C35.76 1.87064 33.87 0 31.1011 0C28.2882 0 26.3928 1.87064 26.3928 4.2347C26.3928 6.5608 28.2882 8.42603 31.1011 8.42603ZM58.5103 36.4748H66.3501V21.6344C66.3501 14.8025 62.3835 10.7955 56.4336 10.7955C52.9724 10.7955 50.2035 12.2974 48.6322 14.4392V11.0666H40.743V36.4748H48.6322V22.6809C48.6322 19.2161 50.5716 17.3075 53.5713 17.3075C56.5709 17.3075 58.5103 19.2161 58.5103 22.6809V36.4748ZM70.2728 23.7273C70.2728 31.7413 75.3052 36.8435 81.6232 36.8435C85.4086 36.8435 88.1281 35.0651 89.562 32.8366V36.4314C89.562 40.7095 87.2051 42.2603 84.2054 42.2603C81.4859 42.2603 79.5465 41.0294 79.0411 39.1154H71.2452C71.9375 45.172 76.9204 49 84.579 49C93.4846 49 97.4512 43.2146 97.4512 36.4314V11.0666H89.562V14.6669C88.1775 12.3896 85.4086 10.7033 81.6232 10.7033C75.3052 10.7033 70.2728 15.7134 70.2728 23.7273ZM89.562 23.7707C89.562 27.8265 86.9304 30.055 83.9307 30.055C80.9805 30.055 78.3049 27.7777 78.3049 23.7273C78.3049 19.6716 80.9805 17.4864 83.9307 17.4864C86.9304 17.4864 89.562 19.7204 89.562 23.7707ZM103.17 36.4748H111.06V11.0666H103.17V36.4748ZM115.213 23.7273C115.213 31.7413 120.246 36.8435 126.52 36.8435C130.349 36.8435 133.068 35.1084 134.502 32.8799V36.4748H142.392V11.0666H134.502V14.6669C133.118 12.433 130.393 10.7033 126.564 10.7033C120.246 10.7033 115.213 15.7134 115.213 23.7273ZM134.502 23.7707C134.502 27.8265 131.871 30.055 128.871 30.055C125.921 30.055 123.245 27.7777 123.245 23.7273C123.245 19.6716 125.921 17.4864 128.871 17.4864C131.871 17.4864 134.502 19.7204 134.502 23.7707ZM148.111 36.4748H156V2.78156H148.111V36.4748Z" fill="#FEFEFE"/>
</svg>
