<svg width="25" height="25" viewBox="0 0 25 25" fill="none" xmlns="http://www.w3.org/2000/svg">
<path d="M18.75 12.5C18.75 10.0417 17.3333 7.93055 15.2778 6.90278V9.97222L18.6806 13.375C18.7222 13.0972 18.75 12.8056 18.75 12.5ZM22.2222 12.5C22.2222 13.8056 21.9444 15.0278 21.4722 16.1667L23.5694 18.2639C24.4861 16.5417 25 14.5833 25 12.5C25 6.55555 20.8472 1.58333 15.2778 0.319444V3.18056C19.2917 4.375 22.2222 8.09722 22.2222 12.5ZM1.76389 0L0 1.76389L6.56944 8.33333H0V16.6667H5.55556L12.5 23.6111V14.2639L18.4028 20.1667C17.4722 20.8889 16.4306 21.4583 15.2778 21.8056V24.6667C17.1944 24.2361 18.9306 23.3472 20.4028 22.1528L23.2361 25L25 23.2361L12.5 10.7361L1.76389 0ZM12.5 1.38889L9.59722 4.29167L12.5 7.19444V1.38889Z" fill="#C90909"/>
</svg>
