<svg width="22" height="22" viewBox="0 0 22 22" fill="none" xmlns="http://www.w3.org/2000/svg">
<path d="M16.5 11C16.5 8.83667 15.2533 6.97889 13.4444 6.07444V8.77556L16.4389 11.77C16.4756 11.5256 16.5 11.2689 16.5 11ZM19.5556 11C19.5556 12.1489 19.3111 13.2244 18.8956 14.2267L20.7411 16.0722C21.5478 14.5567 22 12.8333 22 11C22 5.76889 18.3456 1.39333 13.4444 0.281111V2.79889C16.9767 3.85 19.5556 7.12556 19.5556 11ZM1.55222 0L0 1.55222L5.78111 7.33333H0V14.6667H4.88889L11 20.7778V12.5522L16.1944 17.7467C15.3756 18.3822 14.4589 18.8833 13.4444 19.1889V21.7067C15.1311 21.3278 16.6589 20.5456 17.9544 19.4944L20.4478 22L22 20.4478L11 9.44778L1.55222 0ZM11 1.22222L8.44556 3.77667L11 6.33111V1.22222Z" fill="#FFEEEE"/>
</svg>
