<svg width="36" height="36" viewBox="0 0 36 36" fill="none" xmlns="http://www.w3.org/2000/svg">
<path d="M24.75 18C24.75 15.345 23.22 13.065 21 11.955V15.27L24.675 18.945C24.72 18.645 24.75 18.33 24.75 18ZM28.5 18C28.5 19.41 28.2 20.73 27.69 21.96L29.955 24.225C30.945 22.365 31.5 20.25 31.5 18C31.5 11.58 27.015 6.21 21 4.845V7.935C25.335 9.225 28.5 13.245 28.5 18ZM6.405 4.5L4.5 6.405L11.595 13.5H4.5V22.5H10.5L18 30V19.905L24.375 26.28C23.37 27.06 22.245 27.675 21 28.05V31.14C23.07 30.675 24.945 29.715 26.535 28.425L29.595 31.5L31.5 29.595L18 16.095L6.405 4.5ZM18 6L14.865 9.135L18 12.27V6Z" fill="#941818"/>
</svg>
